<svg width="24" height="24" viewBox="0 0 24 24" fill="none" xmlns="http://www.w3.org/2000/svg">
<path d="M24 12C24 14.3734 23.2962 16.6935 21.9776 18.6668C20.6591 20.6402 18.7849 22.1783 16.5922 23.0866C14.3995 23.9948 11.9867 24.2324 9.65892 23.7694C7.33115 23.3064 5.19295 22.1635 3.51472 20.4853C1.83649 18.8071 0.693605 16.6689 0.230582 14.3411C-0.232441 12.0133 0.00519943 9.60051 0.913451 7.4078C1.8217 5.21509 3.35977 3.34094 5.33316 2.02236C7.30655 0.703788 9.62663 0 12 0C15.1826 0 18.2349 1.26428 20.4853 3.51472C22.7357 5.76516 24 8.8174 24 12ZM19.23 9.84C19.4952 9.57478 19.6442 9.21507 19.6442 8.84C19.6442 8.46493 19.4952 8.10522 19.23 7.84C18.9648 7.57478 18.6051 7.42579 18.23 7.42579C17.8549 7.42579 17.4952 7.57478 17.23 7.84L10.46 14.61L7.00001 11.16C6.73479 10.8948 6.37508 10.7458 6.00001 10.7458C5.62493 10.7458 5.26522 10.8948 5.00001 11.16C4.73479 11.4252 4.58579 11.7849 4.58579 12.16C4.58579 12.5351 4.73479 12.8948 5.00001 13.16L10.45 18.61L19.23 9.84Z" fill="#05B0FF"/>
</svg>
