<svg width="14" height="14" viewBox="0 0 14 14" fill="none" xmlns="http://www.w3.org/2000/svg">
<path d="M13.6668 7.00004C13.6668 8.31858 13.2758 9.60751 12.5433 10.7038C11.8108 11.8002 10.7696 12.6547 9.55139 13.1592C8.33321 13.6638 6.99277 13.7958 5.69956 13.5386C4.40636 13.2814 3.21847 12.6464 2.28612 11.7141C1.35377 10.7817 0.718832 9.59385 0.461597 8.30064C0.204362 7.00744 0.336385 5.66699 0.840969 4.44882C1.34555 3.23064 2.20004 2.18945 3.29636 1.45691C4.39269 0.724367 5.68162 0.333374 7.00017 0.333374C8.76828 0.333374 10.464 1.03575 11.7142 2.286C12.9645 3.53624 13.6668 5.23193 13.6668 7.00004ZM11.0168 5.80004C11.1642 5.6527 11.247 5.45286 11.247 5.24448C11.247 5.03611 11.1642 4.83627 11.0168 4.68893C10.8695 4.54159 10.6696 4.45881 10.4613 4.45881C10.2529 4.45881 10.0531 4.54159 9.90572 4.68893L6.14461 8.45004L4.22239 6.53337C4.07505 6.38603 3.87521 6.30326 3.66683 6.30326C3.45846 6.30326 3.25862 6.38603 3.11128 6.53337C2.96393 6.68072 2.88116 6.88056 2.88116 7.08893C2.88116 7.2973 2.96393 7.49714 3.11128 7.64448L6.13905 10.6723L11.0168 5.80004Z" fill="#05B0FF"/>
</svg>
